<?xml version="1.0" encoding="UTF-8" standalone="no"?>
<svg
   xmlns:dc="http://purl.org/dc/elements/1.1/"
   xmlns:cc="http://creativecommons.org/ns#"
   xmlns:rdf="http://www.w3.org/1999/02/22-rdf-syntax-ns#"
   xmlns:svg="http://www.w3.org/2000/svg"
   xmlns="http://www.w3.org/2000/svg"
   id="svg8"
   version="1.1"
   viewBox="0 0 53.740902 53.740902"
   height="53.740902mm"
   width="53.740902mm">
  <defs
     id="defs2" />
  <metadata
     id="metadata5">
    <rdf:RDF>
      <cc:Work
         rdf:about="">
        <dc:format>image/svg+xml</dc:format>
        <dc:type
           rdf:resource="http://purl.org/dc/dcmitype/StillImage" />
        <dc:title></dc:title>
      </cc:Work>
    </rdf:RDF>
  </metadata>
  <g
     transform="translate(-25.668238,-55.817045)"
     id="layer1">
    <g
       id="g4554">
      <rect
         style="opacity:1;fill:#feff86;fill-opacity:1;stroke:#000000;stroke-width:2.60399985;stroke-linecap:square;stroke-linejoin:miter;stroke-miterlimit:4;stroke-dasharray:none;stroke-opacity:1"
         id="rect4518"
         width="49.136902"
         height="49.136902"
         x="27.970238"
         y="58.119045"
         ry="5.879941" />
      <path
         style="fill:none;stroke:#000000;stroke-width:2.60400009;stroke-linecap:butt;stroke-linejoin:miter;stroke-miterlimit:4;stroke-dasharray:none;stroke-opacity:1"
         d="m 42.955649,57.518027 0.710098,49.768043"
         id="path4530" />
      <path
         style="fill:none;stroke:#000000;stroke-width:2.60400009;stroke-linecap:butt;stroke-linejoin:miter;stroke-miterlimit:4;stroke-dasharray:none;stroke-opacity:1"
         d="M 61.029724,58.130849 61.195782,107.0378"
         id="path4532" />
      <path
         style="fill:none;stroke:#000000;stroke-width:2.60400009;stroke-linecap:butt;stroke-linejoin:miter;stroke-miterlimit:4;stroke-dasharray:none;stroke-opacity:1"
         d="M 27.815979,72.33901 77.203743,69.809447"
         id="path4534" />
      <path
         style="fill:none;stroke:#000000;stroke-width:2.60400009;stroke-linecap:butt;stroke-linejoin:miter;stroke-miterlimit:4;stroke-dasharray:none;stroke-opacity:1"
         d="M 27.789117,91.814279 77.948568,92.05862"
         id="path4536" />
      <path
         style="fill:none;stroke:#000000;stroke-width:2.60400009;stroke-linecap:butt;stroke-linejoin:miter;stroke-miterlimit:4;stroke-dasharray:none;stroke-opacity:1"
         d="m 33.141422,77.838987 c 0,1.024533 0,2.049066 0,3.073598 0,0.222727 0,0.44545 0,0.668174 0,0.08909 0.02162,0.18084 0,0.267271 -0.03417,0.136658 -0.09947,0.264245 -0.133636,0.400902 -0.02162,0.08643 0,0.178181 0,0.267272 0,0.178178 0,0.356359 0,0.534537 0,0.04455 0,0.08909 0,0.133636 0,0.04454 -0.0315,0.102137 0,0.133633 0.0315,0.0315 0.08909,0 0.133636,0 0.311814,0 0.623628,0 0.935442,0 0.579083,0 1.158169,0 1.737252,0 0.05622,0 0.762056,0.01987 0.801809,0 0.05635,-0.02817 0.07729,-0.10546 0.133636,-0.133633 0.03514,-0.01757 0.464659,0 0.534538,0 0.445449,0 0.890899,0 1.336347,0"
         id="path4538" />
      <path
         style="fill:none;stroke:#000000;stroke-width:2.60400009;stroke-linecap:butt;stroke-linejoin:miter;stroke-miterlimit:4;stroke-dasharray:none;stroke-opacity:1"
         d="m 37.284099,78.106256 c 0,0.222723 0,0.44545 0,0.668173 0,0.04454 0.01408,0.09138 0,0.133636 -0.0315,0.09449 -0.07838,0.184393 -0.133636,0.267269 -0.03494,0.05242 -0.113713,0.07387 -0.133633,0.133636 -0.04226,0.126775 0,0.267268 0,0.400904 0,0.35636 0,0.712719 0,1.069078 0,0.08909 0,0.178179 0,0.267269 0,0.04454 0.01408,0.09138 0,0.133633 -0.0315,0.0945 -0.102137,0.172776 -0.133636,0.267272 -0.04733,0.142002 0.04733,0.392536 0,0.534537 -0.0315,0.09449 -0.109477,0.170638 -0.133633,0.267269 -0.03241,0.129646 0.04226,0.27413 0,0.400905 -0.0315,0.0945 -0.102137,0.172775 -0.133636,0.267271 -0.01408,0.04226 0,0.08909 0,0.133633 0,0.08909 0,0.178181 0,0.267269 0,0.08909 0.02162,0.18084 0,0.267272 -0.16133,0.645313 -0.0635,-0.0066 -0.267269,0.400904 -0.04057,0.08114 0.04057,0.720662 0,0.801807 -0.02817,0.05635 -0.105463,0.07729 -0.133635,0.133636 -0.05345,0.106907 0.05345,0.293997 0,0.400904 -0.02817,0.05635 -0.105463,0.07729 -0.133636,0.133633 -0.01992,0.03984 0.01992,0.0938 0,0.133636 -0.02817,0.05635 -0.10546,0.07729 -0.133633,0.133636 -0.03943,0.07885 0.03064,0.308986 0,0.400904 -0.32266,0.967971 0.03853,-0.21069 -0.267272,0.400905 -0.01992,0.03984 0.01992,0.09379 0,0.133633 -0.02817,0.05635 -0.10546,0.07729 -0.133633,0.133636 -0.01992,0.03984 0.01408,0.09137 0,0.133633 -0.0315,0.0945 -0.102137,0.172776 -0.133636,0.267272 -0.02803,0.08411 0,0.547719 0,0.668173 0,0.534538 0,1.069078 0,1.603616"
         id="path4540" />
      <path
         style="fill:none;stroke:#000000;stroke-width:2.60400009;stroke-linecap:butt;stroke-linejoin:miter;stroke-miterlimit:4;stroke-dasharray:none;stroke-opacity:1"
         d="m 66.416477,98.819643 c 0.07843,-0.156863 0.19503,-0.530923 0.400905,-0.668173 0.08288,-0.05525 0.184391,-0.07838 0.267269,-0.133636 0.05242,-0.03494 0.08909,-0.08909 0.133636,-0.133633 0.133633,-0.133636 0.267268,-0.267269 0.400902,-0.400905 0.08909,-0.08909 0.197381,-0.162438 0.267271,-0.267268 0.05525,-0.08288 0.07838,-0.184394 0.133633,-0.267272 0.0811,-0.121647 0.341683,-0.282459 0.400905,-0.400902 0.01992,-0.03984 -0.01992,-0.0938 0,-0.133636 0.02817,-0.05635 0.09869,-0.08122 0.133636,-0.133635 0.05525,-0.08288 0.07838,-0.184391 0.133633,-0.267269 0.06989,-0.104831 0.197381,-0.162439 0.267271,-0.267269 0.294418,-0.0673 0.07064,-0.274913 0.133633,-0.400905 0.02817,-0.05635 0.105463,-0.07729 0.133636,-0.133635 0.01992,-0.03984 -0.0315,-0.102138 0,-0.133634 0.063,-0.063 0.204274,0.063 0.267269,0 0.0315,-0.0315 -0.04454,-0.133635 0,-0.133635 0.04454,0 0,0.08909 0,0.133635 0,0.04455 0,0.08909 0,0.133634 0,0.222726 0,0.445449 0,0.668173 0,0.08909 0.02817,0.182753 0,0.267272 -0.0315,0.09449 -0.102137,0.172775 -0.133633,0.267268 -0.02796,0.08388 0,0.426958 0,0.534538 0,0.356359 0,0.712719 0,1.069078 0,0.107582 0.02796,0.450665 0,0.53454 -0.0315,0.09449 -0.102137,0.172776 -0.133636,0.267269 -0.01408,0.04226 0,0.08909 0,0.133636 0,0.08909 0,0.178178 0,0.267269 0,0.311814 0,0.623628 0,0.935442 0,0.35636 0,0.71272 0,1.06908 0,0.10758 -0.02796,0.45066 0,0.53454 0.0315,0.0945 0.102137,0.17277 0.133636,0.26727 0.04009,0.12027 -0.04009,0.28063 0,0.4009 0.0315,0.0945 0.102134,0.17278 0.133633,0.26727 0.03894,0.11681 -0.04025,0.72132 0,0.80181 0.02817,0.0564 0.08909,0.0891 0.133636,0.13364"
         id="path4544" />
    </g>
  </g>
</svg>
