<?xml version="1.0" encoding="UTF-8" standalone="no"?>
<svg
   xmlns:dc="http://purl.org/dc/elements/1.1/"
   xmlns:cc="http://creativecommons.org/ns#"
   xmlns:rdf="http://www.w3.org/1999/02/22-rdf-syntax-ns#"
   xmlns:svg="http://www.w3.org/2000/svg"
   xmlns="http://www.w3.org/2000/svg"
   width="48"
   height="48"
   viewBox="0 0 12.7 12.7"
   version="1.1"
   id="svg8">
  <defs
     id="defs2" />
  <metadata
     id="metadata5">
    <rdf:RDF>
      <cc:Work
         rdf:about="">
        <dc:format>image/svg+xml</dc:format>
        <dc:type
           rdf:resource="http://purl.org/dc/dcmitype/StillImage" />
        <dc:title></dc:title>
      </cc:Work>
    </rdf:RDF>
  </metadata>
  <g
     id="g855">
    <path
       style="color:#000000;font-style:normal;font-variant:normal;font-weight:normal;font-stretch:normal;font-size:medium;line-height:normal;font-family:sans-serif;font-variant-ligatures:normal;font-variant-position:normal;font-variant-caps:normal;font-variant-numeric:normal;font-variant-alternates:normal;font-feature-settings:normal;text-indent:0;text-align:start;text-decoration:none;text-decoration-line:none;text-decoration-style:solid;text-decoration-color:#000000;letter-spacing:normal;word-spacing:normal;text-transform:none;writing-mode:lr-tb;direction:ltr;text-orientation:mixed;dominant-baseline:auto;baseline-shift:baseline;text-anchor:start;white-space:normal;shape-padding:0;clip-rule:nonzero;display:inline;overflow:visible;visibility:visible;opacity:1;isolation:auto;mix-blend-mode:normal;color-interpolation:sRGB;color-interpolation-filters:linearRGB;solid-color:#000000;solid-opacity:1;vector-effect:none;fill:#000000;fill-opacity:1;fill-rule:nonzero;stroke:none;stroke-width:0.5;stroke-linecap:round;stroke-linejoin:miter;stroke-miterlimit:4;stroke-dasharray:none;stroke-dashoffset:0;stroke-opacity:1;color-rendering:auto;image-rendering:auto;shape-rendering:auto;text-rendering:auto;enable-background:accumulate"
       d="m 3.6679688,3.0371094 c -1.0596027,0 -1.9199219,0.8603166 -1.9199219,1.9199218 v 4.34375 c 0,1.0595968 0.8603192,1.9199218 1.9199219,1.9199218 h 4.8105468 c 1.0596028,0 1.9218754,-0.860325 1.9218754,-1.9199218 V 5.8613281 a 0.250025,0.250025 0 1 0 -0.5000004,0 v 3.4394531 c 0,0.7912438 -0.630624,1.4199218 -1.421875,1.4199218 H 3.6679688 c -0.7912508,0 -1.4199219,-0.628678 -1.4199219,-1.4199218 v -4.34375 c 0,-0.7912547 0.6286711,-1.4199218 1.4199219,-1.4199218 h 2.5371093 a 0.250025,0.250025 0 1 0 0,-0.5 z"
       id="path836" />
    <path
       style="color:#000000;font-style:normal;font-variant:normal;font-weight:normal;font-stretch:normal;font-size:medium;line-height:normal;font-family:sans-serif;font-variant-ligatures:normal;font-variant-position:normal;font-variant-caps:normal;font-variant-numeric:normal;font-variant-alternates:normal;font-feature-settings:normal;text-indent:0;text-align:start;text-decoration:none;text-decoration-line:none;text-decoration-style:solid;text-decoration-color:#000000;letter-spacing:normal;word-spacing:normal;text-transform:none;writing-mode:lr-tb;direction:ltr;text-orientation:mixed;dominant-baseline:auto;baseline-shift:baseline;text-anchor:start;white-space:normal;shape-padding:0;clip-rule:nonzero;display:inline;overflow:visible;visibility:visible;opacity:1;isolation:auto;mix-blend-mode:normal;color-interpolation:sRGB;color-interpolation-filters:linearRGB;solid-color:#000000;solid-opacity:1;vector-effect:none;fill:#000000;fill-opacity:1;fill-rule:nonzero;stroke:none;stroke-width:0.5;stroke-linecap:round;stroke-linejoin:round;stroke-miterlimit:4;stroke-dasharray:none;stroke-dashoffset:0;stroke-opacity:1;paint-order:normal;color-rendering:auto;image-rendering:auto;shape-rendering:auto;text-rendering:auto;enable-background:accumulate"
       d="m 9.2460938,1.4804688 a 0.250025,0.250025 0 0 0 -0.1875,0.095703 l -3.53125,4.546875 A 0.250025,0.250025 0 0 0 5.4785156,6.2304688 L 5.0898438,8.2441406 A 0.250025,0.250025 0 0 0 5.4433594,8.515625 L 7.2792969,7.625 a 0.250025,0.250025 0 0 0 0.087891,-0.072266 L 10.900391,3.0058594 A 0.250025,0.250025 0 0 0 10.855469,2.6542969 L 9.4101562,1.53125 A 0.250025,0.250025 0 0 0 9.2460938,1.4804688 Z M 9.3007812,2.0800781 10.351562,2.8964844 7.0078125,7.2011719 5.6757812,7.8476562 5.9589844,6.3828125 Z"
       id="path850" />
  </g>
</svg>
