<?xml version="1.0" standalone="no"?>
<!DOCTYPE svg PUBLIC "-//W3C//DTD SVG 20010904//EN"
 "http://www.w3.org/TR/2001/REC-SVG-20010904/DTD/svg10.dtd">
<svg version="1.0" xmlns="http://www.w3.org/2000/svg"
 width="700.000000pt" height="700.000000pt" viewBox="0 0 700.000000 700.000000"
 preserveAspectRatio="xMidYMid meet">
<metadata>
Created by potrace 1.11, written by Peter Selinger 2001-2013
</metadata>
<g transform="translate(0.000000,700.000000) scale(0.100000,-0.100000)"
fill="#000000" stroke="none">
<path d="M899 6854 c-396 -71 -702 -389 -759 -790 -8 -57 -10 -782 -8 -2614
l3 -2535 22 -76 c32 -112 69 -194 129 -287 144 -221 375 -368 644 -411 44 -7
885 -11 2571 -11 2761 0 2592 -4 2762 62 295 114 497 342 584 659 16 60 18
225 21 2599 2 1833 0 2557 -8 2614 -58 404 -365 721 -767 791 -123 22 -5075
21 -5194 -1z m1192 -606 c1 -156 4 -472 8 -703 4 -231 4 -423 1 -427 -3 -3
-142 -13 -310 -22 -617 -32 -1276 -66 -1298 -66 l-23 0 3 513 3 512 25 70 c51
147 170 280 308 346 115 56 138 57 735 58 l547 1 1 -282z m2349 -368 c0 -637
0 -650 -19 -650 -11 0 -457 -23 -992 -50 -535 -28 -976 -47 -980 -43 -4 5 -10
320 -14 701 l-7 692 1006 0 1006 0 0 -650z m1622 635 c198 -41 370 -195 438
-390 24 -68 25 -79 28 -427 l3 -356 -83 -6 c-69 -6 -1627 -86 -1658 -86 -7 0
-10 226 -10 640 l0 640 608 0 c488 0 620 -3 674 -15z m468 -2792 l0 -1276
-602 6 c-331 4 -721 7 -868 7 l-267 0 -7 1221 c-4 672 -5 1223 -3 1225 3 3
1578 88 1710 93 l37 1 0 -1277z m-2087 575 c4 -326 7 -873 7 -1216 l0 -623
-982 7 c-541 4 -984 7 -984 8 -3 3 -34 2309 -31 2312 4 4 1816 101 1923 103
l61 1 6 -592z m-2329 195 c10 -464 29 -2013 25 -2018 -3 -2 -379 -1 -837 2
l-832 6 0 1104 0 1103 48 1 c26 0 364 18 752 38 388 21 735 39 771 40 l66 1 7
-277z m-252 -2360 l285 -6 6 -401 c4 -221 10 -594 13 -829 l7 -428 -614 3
-614 3 -75 27 c-149 55 -274 167 -341 306 -57 117 -59 143 -59 765 l0 567 553
0 c305 0 682 -3 839 -7z m2583 -15 c1 -2 6 -373 9 -825 l7 -823 -974 0 -974 0
-6 397 c-4 219 -10 593 -14 832 l-6 434 978 -6 c538 -4 979 -8 980 -9z m1573
-5 l512 -6 0 -551 c0 -606 -3 -633 -60 -750 -69 -140 -192 -250 -340 -304
l-75 -27 -626 -3 -626 -3 -6 428 c-4 235 -7 607 -7 826 l0 397 358 0 c197 0
589 -3 870 -7z"/>
<path d="M797 3759 c-6 -368 -6 -370 16 -416 17 -34 33 -51 69 -69 43 -22 59
-24 188 -24 77 0 140 -2 140 -4 0 -9 -49 -157 -63 -187 -44 -100 -47 -117 -47
-279 l0 -160 170 0 170 0 0 134 c0 118 2 136 20 159 11 14 27 54 36 89 9 34
20 68 25 74 5 6 17 51 28 100 l18 89 62 3 61 3 -2 167 -3 167 -28 3 c-22 3
-27 7 -22 20 4 9 10 76 14 147 5 72 13 143 19 158 7 16 12 60 12 98 l0 69
-170 0 -170 0 0 -34 c0 -18 -7 -47 -15 -62 -11 -21 -15 -61 -15 -142 0 -62 -4
-132 -9 -155 -6 -23 -13 -59 -16 -79 l-6 -38 -69 0 -70 0 0 270 0 270 -168 0
-169 0 -6 -371z"/>
<path d="M5640 2057 c-59 -28 -90 -54 -102 -82 -6 -16 -18 -34 -25 -38 -7 -4
-13 -12 -13 -18 0 -9 -49 -82 -133 -199 -15 -21 -41 -49 -57 -62 -16 -13 -44
-34 -61 -47 -33 -26 -89 -106 -89 -127 0 -7 65 -46 145 -86 l144 -72 26 24 25
23 0 -171 c0 -117 5 -194 16 -244 8 -40 19 -108 23 -151 7 -60 15 -86 37 -118
l28 -40 115 115 c64 64 120 116 124 116 4 0 14 -15 22 -32 l14 -33 1 38 c0 20
-9 80 -21 133 -22 102 -22 197 0 549 25 386 25 396 -1 445 -41 77 -144 113
-218 77z"/>
</g>
</svg>
